# xmcd
#
# Track frame offsets:
#	150
#	20422
#	31105
#	42760
#	61393
#	75463
#	87256
#	102686
#	111872
#	138840
#	150639
#	162802
#	175150
#
# Disc length: 2515 seconds
# Revision: 0
# Processed by: cddbd v1.5.2PL0 Copyright (c) Steve Scherf et al.
# Submitted via: dBpowerAMP V12.0
#
DISCID=9709d10d
DTITLE=Chuck Berry - San Francisco Dues
DYEAR=1971
DGENRE=Blues
TTITLE0=Oh, Louisiana
TTITLE1=Let's Do Our Thing Together
TTITLE2=Your Lick
TTITLE3=Festival
TTITLE4=Bound to Lose
TTITLE5=Bordeaux In My Pirough
TTITLE6=San Francisco Dues
TTITLE7=Viva Viva Rock 'n Roll
TTITLE8=My Dream (Poem)
TTITLE9=Lonely School Days [Bonus]
TTITLE10=Ramona Say Yes [Bonus]
TTITLE11=Ramona Say Yes (Alternate Mix) [Bonus]
TTITLE12=Lonely School Days [Bonus]
EXTD=
EXTT0=
EXTT1=
EXTT2=
EXTT3=
EXTT4=
EXTT5=
EXTT6=
EXTT7=
EXTT8=
EXTT9=
EXTT10=
EXTT11=
EXTT12=
PLAYORDER=
